solid ASCII
  facet normal 0.000000e+00 0.000000e+00 1.000000e+00
    outer loop
      vertex   1.300000e+02 9.100000e+01 1.700000e+01
      vertex   -2.000000e+00 9.100000e+01 1.700000e+01
      vertex   1.300000e+02 8.800000e+01 1.700000e+01
    endloop
  endfacet
  facet normal 0.000000e+00 0.000000e+00 1.000000e+00
    outer loop
      vertex   1.300000e+02 8.800000e+01 1.700000e+01
      vertex   -2.000000e+00 9.100000e+01 1.700000e+01
      vertex   -2.000000e+00 8.800000e+01 1.700000e+01
    endloop
  endfacet
  facet normal 0.000000e+00 0.000000e+00 1.000000e+00
    outer loop
      vertex   -2.000000e+00 -5.000000e+00 1.700000e+01
      vertex   1.300000e+02 -5.000000e+00 1.700000e+01
      vertex   -2.000000e+00 -2.000000e+00 1.700000e+01
    endloop
  endfacet
  facet normal -0.000000e+00 0.000000e+00 1.000000e+00
    outer loop
      vertex   -2.000000e+00 -2.000000e+00 1.700000e+01
      vertex   1.300000e+02 -5.000000e+00 1.700000e+01
      vertex   1.300000e+02 -2.000000e+00 1.700000e+01
    endloop
  endfacet
  facet normal 0.000000e+00 1.000000e+00 0.000000e+00
    outer loop
      vertex   -2.000000e+00 9.100000e+01 1.900000e+01
      vertex   -2.000000e+00 9.100000e+01 1.700000e+01
      vertex   -1.000000e+01 9.100000e+01 1.900000e+01
    endloop
  endfacet
  facet normal 0.000000e+00 1.000000e+00 0.000000e+00
    outer loop
      vertex   -1.000000e+01 9.100000e+01 1.900000e+01
      vertex   -2.000000e+00 9.100000e+01 1.700000e+01
      vertex   -1.000000e+01 9.100000e+01 0.000000e+00
    endloop
  endfacet
  facet normal 0.000000e+00 1.000000e+00 0.000000e+00
    outer loop
      vertex   -1.000000e+01 9.100000e+01 0.000000e+00
      vertex   -2.000000e+00 9.100000e+01 1.700000e+01
      vertex   1.300000e+02 9.100000e+01 1.700000e+01
    endloop
  endfacet
  facet normal 0.000000e+00 1.000000e+00 0.000000e+00
    outer loop
      vertex   -1.000000e+01 9.100000e+01 0.000000e+00
      vertex   1.300000e+02 9.100000e+01 1.700000e+01
      vertex   1.380000e+02 9.100000e+01 0.000000e+00
    endloop
  endfacet
  facet normal 0.000000e+00 1.000000e+00 -0.000000e+00
    outer loop
      vertex   1.380000e+02 9.100000e+01 0.000000e+00
      vertex   1.300000e+02 9.100000e+01 1.700000e+01
      vertex   1.380000e+02 9.100000e+01 1.900000e+01
    endloop
  endfacet
  facet normal 0.000000e+00 1.000000e+00 0.000000e+00
    outer loop
      vertex   1.380000e+02 9.100000e+01 1.900000e+01
      vertex   1.300000e+02 9.100000e+01 1.700000e+01
      vertex   1.300000e+02 9.100000e+01 1.900000e+01
    endloop
  endfacet
  facet normal 0.000000e+00 -1.000000e+00 0.000000e+00
    outer loop
      vertex   1.300000e+02 -5.000000e+00 1.900000e+01
      vertex   1.300000e+02 -5.000000e+00 1.700000e+01
      vertex   1.380000e+02 -5.000000e+00 1.900000e+01
    endloop
  endfacet
  facet normal 0.000000e+00 -1.000000e+00 -0.000000e+00
    outer loop
      vertex   1.380000e+02 -5.000000e+00 1.900000e+01
      vertex   1.300000e+02 -5.000000e+00 1.700000e+01
      vertex   1.380000e+02 -5.000000e+00 0.000000e+00
    endloop
  endfacet
  facet normal 0.000000e+00 -1.000000e+00 0.000000e+00
    outer loop
      vertex   1.380000e+02 -5.000000e+00 0.000000e+00
      vertex   1.300000e+02 -5.000000e+00 1.700000e+01
      vertex   -2.000000e+00 -5.000000e+00 1.700000e+01
    endloop
  endfacet
  facet normal 0.000000e+00 -1.000000e+00 0.000000e+00
    outer loop
      vertex   1.380000e+02 -5.000000e+00 0.000000e+00
      vertex   -2.000000e+00 -5.000000e+00 1.700000e+01
      vertex   -1.000000e+01 -5.000000e+00 0.000000e+00
    endloop
  endfacet
  facet normal 0.000000e+00 -1.000000e+00 0.000000e+00
    outer loop
      vertex   -1.000000e+01 -5.000000e+00 0.000000e+00
      vertex   -2.000000e+00 -5.000000e+00 1.700000e+01
      vertex   -1.000000e+01 -5.000000e+00 1.900000e+01
    endloop
  endfacet
  facet normal 0.000000e+00 -1.000000e+00 0.000000e+00
    outer loop
      vertex   -1.000000e+01 -5.000000e+00 1.900000e+01
      vertex   -2.000000e+00 -5.000000e+00 1.700000e+01
      vertex   -2.000000e+00 -5.000000e+00 1.900000e+01
    endloop
  endfacet
  facet normal -0.000000e+00 0.000000e+00 1.000000e+00
    outer loop
      vertex   1.300000e+02 9.100000e+01 1.900000e+01
      vertex   1.300000e+02 -5.000000e+00 1.900000e+01
      vertex   1.380000e+02 9.100000e+01 1.900000e+01
    endloop
  endfacet
  facet normal 0.000000e+00 0.000000e+00 1.000000e+00
    outer loop
      vertex   1.380000e+02 9.100000e+01 1.900000e+01
      vertex   1.300000e+02 -5.000000e+00 1.900000e+01
      vertex   1.380000e+02 -5.000000e+00 1.900000e+01
    endloop
  endfacet
  facet normal 0.000000e+00 0.000000e+00 1.000000e+00
    outer loop
      vertex   1.380000e+02 9.100000e+01 1.900000e+01
      vertex   1.380000e+02 -5.000000e+00 1.900000e+01
      vertex   1.430000e+02 0.000000e+00 1.900000e+01
    endloop
  endfacet
  facet normal 0.000000e+00 -0.000000e+00 1.000000e+00
    outer loop
      vertex   1.430000e+02 0.000000e+00 1.900000e+01
      vertex   1.430000e+02 8.600000e+01 1.900000e+01
      vertex   1.380000e+02 9.100000e+01 1.900000e+01
    endloop
  endfacet
  facet normal 7.071068e-01 7.071068e-01 0.000000e+00
    outer loop
      vertex   1.430000e+02 8.600000e+01 1.900000e+01
      vertex   1.430000e+02 8.600000e+01 0.000000e+00
      vertex   1.380000e+02 9.100000e+01 1.900000e+01
    endloop
  endfacet
  facet normal 7.071068e-01 7.071068e-01 0.000000e+00
    outer loop
      vertex   1.380000e+02 9.100000e+01 1.900000e+01
      vertex   1.430000e+02 8.600000e+01 0.000000e+00
      vertex   1.380000e+02 9.100000e+01 0.000000e+00
    endloop
  endfacet
  facet normal 0.000000e+00 -0.000000e+00 -1.000000e+00
    outer loop
      vertex   -1.000000e+01 9.100000e+01 0.000000e+00
      vertex   1.380000e+02 9.100000e+01 0.000000e+00
      vertex   -1.500000e+01 8.600000e+01 0.000000e+00
    endloop
  endfacet
  facet normal 0.000000e+00 0.000000e+00 -1.000000e+00
    outer loop
      vertex   -1.500000e+01 8.600000e+01 0.000000e+00
      vertex   1.380000e+02 9.100000e+01 0.000000e+00
      vertex   1.430000e+02 8.600000e+01 0.000000e+00
    endloop
  endfacet
  facet normal 0.000000e+00 0.000000e+00 -1.000000e+00
    outer loop
      vertex   -1.500000e+01 8.600000e+01 0.000000e+00
      vertex   1.430000e+02 8.600000e+01 0.000000e+00
      vertex   -1.500000e+01 0.000000e+00 0.000000e+00
    endloop
  endfacet
  facet normal 0.000000e+00 0.000000e+00 -1.000000e+00
    outer loop
      vertex   -1.500000e+01 0.000000e+00 0.000000e+00
      vertex   1.430000e+02 8.600000e+01 0.000000e+00
      vertex   1.430000e+02 0.000000e+00 0.000000e+00
    endloop
  endfacet
  facet normal 0.000000e+00 0.000000e+00 -1.000000e+00
    outer loop
      vertex   -1.500000e+01 0.000000e+00 0.000000e+00
      vertex   1.430000e+02 0.000000e+00 0.000000e+00
      vertex   -1.000000e+01 -5.000000e+00 0.000000e+00
    endloop
  endfacet
  facet normal 0.000000e+00 0.000000e+00 -1.000000e+00
    outer loop
      vertex   -1.000000e+01 -5.000000e+00 0.000000e+00
      vertex   1.430000e+02 0.000000e+00 0.000000e+00
      vertex   1.380000e+02 -5.000000e+00 0.000000e+00
    endloop
  endfacet
  facet normal 1.000000e+00 0.000000e+00 0.000000e+00
    outer loop
      vertex   1.430000e+02 3.592905e+01 9.459026e+00
      vertex   1.430000e+02 0.000000e+00 0.000000e+00
      vertex   1.430000e+02 4.304097e+01 2.429051e+00
    endloop
  endfacet
  facet normal 1.000000e+00 0.000000e+00 0.000000e+00
    outer loop
      vertex   1.430000e+02 4.304097e+01 2.429051e+00
      vertex   1.430000e+02 0.000000e+00 0.000000e+00
      vertex   1.430000e+02 8.600000e+01 0.000000e+00
    endloop
  endfacet
  facet normal 1.000000e+00 -0.000000e+00 0.000000e+00
    outer loop
      vertex   1.430000e+02 4.304097e+01 2.429051e+00
      vertex   1.430000e+02 8.600000e+01 0.000000e+00
      vertex   1.430000e+02 5.007095e+01 9.540974e+00
    endloop
  endfacet
  facet normal 1.000000e+00 -0.000000e+00 0.000000e+00
    outer loop
      vertex   1.430000e+02 5.007095e+01 9.540974e+00
      vertex   1.430000e+02 8.600000e+01 0.000000e+00
      vertex   1.430000e+02 8.600000e+01 1.900000e+01
    endloop
  endfacet
  facet normal 1.000000e+00 0.000000e+00 -0.000000e+00
    outer loop
      vertex   1.430000e+02 5.007095e+01 9.540974e+00
      vertex   1.430000e+02 8.600000e+01 1.900000e+01
      vertex   1.430000e+02 4.295903e+01 1.657095e+01
    endloop
  endfacet
  facet normal 1.000000e+00 0.000000e+00 -0.000000e+00
    outer loop
      vertex   1.430000e+02 4.295903e+01 1.657095e+01
      vertex   1.430000e+02 8.600000e+01 1.900000e+01
      vertex   1.430000e+02 0.000000e+00 1.900000e+01
    endloop
  endfacet
  facet normal 1.000000e+00 0.000000e+00 0.000000e+00
    outer loop
      vertex   1.430000e+02 4.295903e+01 1.657095e+01
      vertex   1.430000e+02 0.000000e+00 1.900000e+01
      vertex   1.430000e+02 3.592905e+01 9.459026e+00
    endloop
  endfacet
  facet normal 1.000000e+00 0.000000e+00 0.000000e+00
    outer loop
      vertex   1.430000e+02 3.592905e+01 9.459026e+00
      vertex   1.430000e+02 0.000000e+00 1.900000e+01
      vertex   1.430000e+02 0.000000e+00 0.000000e+00
    endloop
  endfacet
  facet normal 7.071068e-01 -7.071068e-01 0.000000e+00
    outer loop
      vertex   1.430000e+02 0.000000e+00 0.000000e+00
      vertex   1.430000e+02 0.000000e+00 1.900000e+01
      vertex   1.380000e+02 -5.000000e+00 0.000000e+00
    endloop
  endfacet
  facet normal 7.071068e-01 -7.071068e-01 0.000000e+00
    outer loop
      vertex   1.380000e+02 -5.000000e+00 0.000000e+00
      vertex   1.430000e+02 0.000000e+00 1.900000e+01
      vertex   1.380000e+02 -5.000000e+00 1.900000e+01
    endloop
  endfacet
  facet normal -7.071068e-01 7.071068e-01 0.000000e+00
    outer loop
      vertex   -1.500000e+01 8.600000e+01 0.000000e+00
      vertex   -1.500000e+01 8.600000e+01 1.900000e+01
      vertex   -1.000000e+01 9.100000e+01 0.000000e+00
    endloop
  endfacet
  facet normal -7.071068e-01 7.071068e-01 0.000000e+00
    outer loop
      vertex   -1.000000e+01 9.100000e+01 0.000000e+00
      vertex   -1.500000e+01 8.600000e+01 1.900000e+01
      vertex   -1.000000e+01 9.100000e+01 1.900000e+01
    endloop
  endfacet
  facet normal -1.000000e+00 0.000000e+00 0.000000e+00
    outer loop
      vertex   -1.500000e+01 8.600000e+01 0.000000e+00
      vertex   -1.500000e+01 5.007095e+01 9.540974e+00
      vertex   -1.500000e+01 8.600000e+01 1.900000e+01
    endloop
  endfacet
  facet normal -1.000000e+00 0.000000e+00 0.000000e+00
    outer loop
      vertex   -1.500000e+01 8.600000e+01 1.900000e+01
      vertex   -1.500000e+01 5.007095e+01 9.540974e+00
      vertex   -1.500000e+01 4.295903e+01 1.657095e+01
    endloop
  endfacet
  facet normal -1.000000e+00 -0.000000e+00 0.000000e+00
    outer loop
      vertex   -1.500000e+01 8.600000e+01 1.900000e+01
      vertex   -1.500000e+01 4.295903e+01 1.657095e+01
      vertex   -1.500000e+01 0.000000e+00 1.900000e+01
    endloop
  endfacet
  facet normal -1.000000e+00 0.000000e+00 0.000000e+00
    outer loop
      vertex   -1.500000e+01 0.000000e+00 1.900000e+01
      vertex   -1.500000e+01 4.295903e+01 1.657095e+01
      vertex   -1.500000e+01 3.592905e+01 9.459026e+00
    endloop
  endfacet
  facet normal -1.000000e+00 0.000000e+00 0.000000e+00
    outer loop
      vertex   -1.500000e+01 0.000000e+00 1.900000e+01
      vertex   -1.500000e+01 3.592905e+01 9.459026e+00
      vertex   -1.500000e+01 0.000000e+00 0.000000e+00
    endloop
  endfacet
  facet normal -1.000000e+00 0.000000e+00 0.000000e+00
    outer loop
      vertex   -1.500000e+01 0.000000e+00 0.000000e+00
      vertex   -1.500000e+01 3.592905e+01 9.459026e+00
      vertex   -1.500000e+01 4.304097e+01 2.429051e+00
    endloop
  endfacet
  facet normal -1.000000e+00 0.000000e+00 0.000000e+00
    outer loop
      vertex   -1.500000e+01 0.000000e+00 0.000000e+00
      vertex   -1.500000e+01 4.304097e+01 2.429051e+00
      vertex   -1.500000e+01 8.600000e+01 0.000000e+00
    endloop
  endfacet
  facet normal -1.000000e+00 0.000000e+00 0.000000e+00
    outer loop
      vertex   -1.500000e+01 8.600000e+01 0.000000e+00
      vertex   -1.500000e+01 4.304097e+01 2.429051e+00
      vertex   -1.500000e+01 5.007095e+01 9.540974e+00
    endloop
  endfacet
  facet normal -7.071068e-01 -7.071068e-01 -0.000000e+00
    outer loop
      vertex   -1.500000e+01 0.000000e+00 1.900000e+01
      vertex   -1.500000e+01 0.000000e+00 0.000000e+00
      vertex   -1.000000e+01 -5.000000e+00 1.900000e+01
    endloop
  endfacet
  facet normal -7.071068e-01 -7.071068e-01 -0.000000e+00
    outer loop
      vertex   -1.000000e+01 -5.000000e+00 1.900000e+01
      vertex   -1.500000e+01 0.000000e+00 0.000000e+00
      vertex   -1.000000e+01 -5.000000e+00 0.000000e+00
    endloop
  endfacet
  facet normal -5.742415e-17 7.029976e-01 7.111923e-01
    outer loop
      vertex   -1.500000e+01 4.304097e+01 2.429051e+00
      vertex   -1.500000e+01 3.592905e+01 9.459026e+00
      vertex   -4.000000e+00 4.304097e+01 2.429051e+00
    endloop
  endfacet
  facet normal 0.000000e+00 7.029976e-01 7.111923e-01
    outer loop
      vertex   -4.000000e+00 4.304097e+01 2.429051e+00
      vertex   -1.500000e+01 3.592905e+01 9.459026e+00
      vertex   -4.000000e+00 3.592905e+01 9.459026e+00
    endloop
  endfacet
  facet normal 0.000000e+00 -7.111923e-01 7.029976e-01
    outer loop
      vertex   -1.500000e+01 5.007095e+01 9.540974e+00
      vertex   -1.500000e+01 4.304097e+01 2.429051e+00
      vertex   -4.000000e+00 5.007095e+01 9.540974e+00
    endloop
  endfacet
  facet normal -6.459479e-17 -7.111923e-01 7.029976e-01
    outer loop
      vertex   -4.000000e+00 5.007095e+01 9.540974e+00
      vertex   -1.500000e+01 4.304097e+01 2.429051e+00
      vertex   -4.000000e+00 4.304097e+01 2.429051e+00
    endloop
  endfacet
  facet normal 0.000000e+00 -7.029976e-01 -7.111923e-01
    outer loop
      vertex   -1.500000e+01 4.295903e+01 1.657095e+01
      vertex   -1.500000e+01 5.007095e+01 9.540974e+00
      vertex   -4.000000e+00 4.295903e+01 1.657095e+01
    endloop
  endfacet
  facet normal 0.000000e+00 -7.029976e-01 -7.111923e-01
    outer loop
      vertex   -4.000000e+00 4.295903e+01 1.657095e+01
      vertex   -1.500000e+01 5.007095e+01 9.540974e+00
      vertex   -4.000000e+00 5.007095e+01 9.540974e+00
    endloop
  endfacet
  facet normal 0.000000e+00 7.111923e-01 -7.029976e-01
    outer loop
      vertex   -1.500000e+01 3.592905e+01 9.459026e+00
      vertex   -1.500000e+01 4.295903e+01 1.657095e+01
      vertex   -4.000000e+00 3.592905e+01 9.459026e+00
    endloop
  endfacet
  facet normal 0.000000e+00 7.111923e-01 -7.029976e-01
    outer loop
      vertex   -4.000000e+00 3.592905e+01 9.459026e+00
      vertex   -1.500000e+01 4.295903e+01 1.657095e+01
      vertex   -4.000000e+00 4.295903e+01 1.657095e+01
    endloop
  endfacet
  facet normal -1.000000e+00 0.000000e+00 0.000000e+00
    outer loop
      vertex   -4.000000e+00 3.592905e+01 9.459026e+00
      vertex   -4.000000e+00 4.295903e+01 1.657095e+01
      vertex   -4.000000e+00 4.304097e+01 2.429051e+00
    endloop
  endfacet
  facet normal -1.000000e+00 0.000000e+00 0.000000e+00
    outer loop
      vertex   -4.000000e+00 4.304097e+01 2.429051e+00
      vertex   -4.000000e+00 4.295903e+01 1.657095e+01
      vertex   -4.000000e+00 5.007095e+01 9.540974e+00
    endloop
  endfacet
  facet normal 0.000000e+00 7.029976e-01 7.111923e-01
    outer loop
      vertex   1.430000e+02 3.592905e+01 9.459026e+00
      vertex   1.430000e+02 4.304097e+01 2.429051e+00
      vertex   1.320000e+02 3.592905e+01 9.459026e+00
    endloop
  endfacet
  facet normal 6.459479e-17 7.029976e-01 7.111923e-01
    outer loop
      vertex   1.320000e+02 3.592905e+01 9.459026e+00
      vertex   1.430000e+02 4.304097e+01 2.429051e+00
      vertex   1.320000e+02 4.304097e+01 2.429051e+00
    endloop
  endfacet
  facet normal 5.676248e-17 -7.111923e-01 7.029976e-01
    outer loop
      vertex   1.430000e+02 4.304097e+01 2.429051e+00
      vertex   1.430000e+02 5.007095e+01 9.540974e+00
      vertex   1.320000e+02 4.304097e+01 2.429051e+00
    endloop
  endfacet
  facet normal 0.000000e+00 -7.111923e-01 7.029976e-01
    outer loop
      vertex   1.320000e+02 4.304097e+01 2.429051e+00
      vertex   1.430000e+02 5.007095e+01 9.540974e+00
      vertex   1.320000e+02 5.007095e+01 9.540974e+00
    endloop
  endfacet
  facet normal -0.000000e+00 -7.029976e-01 -7.111923e-01
    outer loop
      vertex   1.430000e+02 5.007095e+01 9.540974e+00
      vertex   1.430000e+02 4.295903e+01 1.657095e+01
      vertex   1.320000e+02 5.007095e+01 9.540974e+00
    endloop
  endfacet
  facet normal 0.000000e+00 -7.029976e-01 -7.111923e-01
    outer loop
      vertex   1.320000e+02 5.007095e+01 9.540974e+00
      vertex   1.430000e+02 4.295903e+01 1.657095e+01
      vertex   1.320000e+02 4.295903e+01 1.657095e+01
    endloop
  endfacet
  facet normal 0.000000e+00 7.111923e-01 -7.029976e-01
    outer loop
      vertex   1.430000e+02 4.295903e+01 1.657095e+01
      vertex   1.430000e+02 3.592905e+01 9.459026e+00
      vertex   1.320000e+02 4.295903e+01 1.657095e+01
    endloop
  endfacet
  facet normal 0.000000e+00 7.111923e-01 -7.029976e-01
    outer loop
      vertex   1.320000e+02 4.295903e+01 1.657095e+01
      vertex   1.430000e+02 3.592905e+01 9.459026e+00
      vertex   1.320000e+02 3.592905e+01 9.459026e+00
    endloop
  endfacet
  facet normal 1.000000e+00 -0.000000e+00 0.000000e+00
    outer loop
      vertex   1.320000e+02 3.592905e+01 9.459026e+00
      vertex   1.320000e+02 4.304097e+01 2.429051e+00
      vertex   1.320000e+02 4.295903e+01 1.657095e+01
    endloop
  endfacet
  facet normal 1.000000e+00 0.000000e+00 0.000000e+00
    outer loop
      vertex   1.320000e+02 4.295903e+01 1.657095e+01
      vertex   1.320000e+02 4.304097e+01 2.429051e+00
      vertex   1.320000e+02 5.007095e+01 9.540974e+00
    endloop
  endfacet
  facet normal -0.000000e+00 1.000000e+00 0.000000e+00
    outer loop
      vertex   -2.000000e+00 -2.000000e+00 1.700000e+01
      vertex   1.300000e+02 -2.000000e+00 1.700000e+01
      vertex   -2.000000e+00 -2.000000e+00 3.000000e+00
    endloop
  endfacet
  facet normal 5.046468e-17 1.000000e+00 -4.758099e-16
    outer loop
      vertex   -2.000000e+00 -2.000000e+00 3.000000e+00
      vertex   1.300000e+02 -2.000000e+00 1.700000e+01
      vertex   1.300000e+02 -2.000000e+00 3.000000e+00
    endloop
  endfacet
  facet normal -1.000000e+00 0.000000e+00 0.000000e+00
    outer loop
      vertex   1.300000e+02 8.800000e+01 3.000000e+00
      vertex   1.300000e+02 -2.000000e+00 3.000000e+00
      vertex   1.300000e+02 8.800000e+01 1.700000e+01
    endloop
  endfacet
  facet normal -1.000000e+00 -0.000000e+00 0.000000e+00
    outer loop
      vertex   1.300000e+02 8.800000e+01 1.700000e+01
      vertex   1.300000e+02 -2.000000e+00 3.000000e+00
      vertex   1.300000e+02 -2.000000e+00 1.700000e+01
    endloop
  endfacet
  facet normal -1.000000e+00 0.000000e+00 0.000000e+00
    outer loop
      vertex   1.300000e+02 8.800000e+01 1.700000e+01
      vertex   1.300000e+02 -2.000000e+00 1.700000e+01
      vertex   1.300000e+02 9.100000e+01 1.900000e+01
    endloop
  endfacet
  facet normal -1.000000e+00 -0.000000e+00 0.000000e+00
    outer loop
      vertex   1.300000e+02 9.100000e+01 1.900000e+01
      vertex   1.300000e+02 -2.000000e+00 1.700000e+01
      vertex   1.300000e+02 -5.000000e+00 1.900000e+01
    endloop
  endfacet
  facet normal -1.000000e+00 0.000000e+00 0.000000e+00
    outer loop
      vertex   1.300000e+02 -5.000000e+00 1.900000e+01
      vertex   1.300000e+02 -2.000000e+00 1.700000e+01
      vertex   1.300000e+02 -5.000000e+00 1.700000e+01
    endloop
  endfacet
  facet normal -1.000000e+00 0.000000e+00 -0.000000e+00
    outer loop
      vertex   1.300000e+02 9.100000e+01 1.900000e+01
      vertex   1.300000e+02 9.100000e+01 1.700000e+01
      vertex   1.300000e+02 8.800000e+01 1.700000e+01
    endloop
  endfacet
  facet normal -0.000000e+00 -1.000000e+00 -0.000000e+00
    outer loop
      vertex   1.300000e+02 8.800000e+01 1.700000e+01
      vertex   -2.000000e+00 8.800000e+01 1.700000e+01
      vertex   1.300000e+02 8.800000e+01 3.000000e+00
    endloop
  endfacet
  facet normal 0.000000e+00 -1.000000e+00 0.000000e+00
    outer loop
      vertex   1.300000e+02 8.800000e+01 3.000000e+00
      vertex   -2.000000e+00 8.800000e+01 1.700000e+01
      vertex   -2.000000e+00 8.800000e+01 3.000000e+00
    endloop
  endfacet
  facet normal 1.000000e+00 -7.401487e-17 -4.758099e-16
    outer loop
      vertex   -2.000000e+00 -2.000000e+00 3.000000e+00
      vertex   -2.000000e+00 8.800000e+01 3.000000e+00
      vertex   -2.000000e+00 -2.000000e+00 1.700000e+01
    endloop
  endfacet
  facet normal 1.000000e+00 -0.000000e+00 0.000000e+00
    outer loop
      vertex   -2.000000e+00 -2.000000e+00 1.700000e+01
      vertex   -2.000000e+00 8.800000e+01 3.000000e+00
      vertex   -2.000000e+00 8.800000e+01 1.700000e+01
    endloop
  endfacet
  facet normal 1.000000e+00 -0.000000e+00 3.330669e-15
    outer loop
      vertex   -2.000000e+00 -2.000000e+00 1.700000e+01
      vertex   -2.000000e+00 8.800000e+01 1.700000e+01
      vertex   -2.000000e+00 -5.000000e+00 1.900000e+01
    endloop
  endfacet
  facet normal 1.000000e+00 -7.170190e-17 -3.469447e-18
    outer loop
      vertex   -2.000000e+00 -5.000000e+00 1.900000e+01
      vertex   -2.000000e+00 8.800000e+01 1.700000e+01
      vertex   -2.000000e+00 9.100000e+01 1.900000e+01
    endloop
  endfacet
  facet normal 1.000000e+00 -7.401487e-17 0.000000e+00
    outer loop
      vertex   -2.000000e+00 9.100000e+01 1.900000e+01
      vertex   -2.000000e+00 8.800000e+01 1.700000e+01
      vertex   -2.000000e+00 9.100000e+01 1.700000e+01
    endloop
  endfacet
  facet normal 1.000000e+00 0.000000e+00 3.330669e-15
    outer loop
      vertex   -2.000000e+00 -5.000000e+00 1.900000e+01
      vertex   -2.000000e+00 -5.000000e+00 1.700000e+01
      vertex   -2.000000e+00 -2.000000e+00 1.700000e+01
    endloop
  endfacet
  facet normal 0.000000e+00 0.000000e+00 1.000000e+00
    outer loop
      vertex   -2.000000e+00 9.100000e+01 1.900000e+01
      vertex   -1.000000e+01 9.100000e+01 1.900000e+01
      vertex   -2.000000e+00 -5.000000e+00 1.900000e+01
    endloop
  endfacet
  facet normal 0.000000e+00 0.000000e+00 1.000000e+00
    outer loop
      vertex   -2.000000e+00 -5.000000e+00 1.900000e+01
      vertex   -1.000000e+01 9.100000e+01 1.900000e+01
      vertex   -1.000000e+01 -5.000000e+00 1.900000e+01
    endloop
  endfacet
  facet normal 0.000000e+00 -0.000000e+00 1.000000e+00
    outer loop
      vertex   -1.000000e+01 -5.000000e+00 1.900000e+01
      vertex   -1.000000e+01 9.100000e+01 1.900000e+01
      vertex   -1.500000e+01 0.000000e+00 1.900000e+01
    endloop
  endfacet
  facet normal 0.000000e+00 0.000000e+00 1.000000e+00
    outer loop
      vertex   -1.500000e+01 0.000000e+00 1.900000e+01
      vertex   -1.000000e+01 9.100000e+01 1.900000e+01
      vertex   -1.500000e+01 8.600000e+01 1.900000e+01
    endloop
  endfacet
  facet normal -0.000000e+00 0.000000e+00 1.000000e+00
    outer loop
      vertex   -2.000000e+00 -2.000000e+00 3.000000e+00
      vertex   1.300000e+02 -2.000000e+00 3.000000e+00
      vertex   -2.000000e+00 8.800000e+01 3.000000e+00
    endloop
  endfacet
  facet normal -0.000000e+00 0.000000e+00 1.000000e+00
    outer loop
      vertex   -2.000000e+00 8.800000e+01 3.000000e+00
      vertex   1.300000e+02 -2.000000e+00 3.000000e+00
      vertex   1.300000e+02 8.800000e+01 3.000000e+00
    endloop
  endfacet
endsolid
